<svg xmlns="http://www.w3.org/2000/svg" viewBox="0 0 512 512">
  <defs>
    <radialGradient id="disc" cx="42%" cy="38%" r="72%">
      <stop offset="0" stop-color="#183a68"/>
      <stop offset="1" stop-color="#0b1f3d"/>
    </radialGradient>
  </defs>
  <g>
    <path fill="#1b2a63" d="M96.97,76.25 A240,240 0 0 1 415.03,76.25 L373.95,122.69 A178,178 0 0 0 138.05,122.69 Z"/>
    <path fill="#2f6fb3" d="M435.75,96.97 A240,240 0 0 1 435.75,415.03 L389.31,373.95 A178,178 0 0 0 389.31,138.05 Z"/>
    <path fill="#33b0c6" d="M415.03,435.75 A240,240 0 0 1 96.97,435.75 L138.05,389.31 A178,178 0 0 0 373.95,389.31 Z"/>
    <path fill="#f5a11c" d="M76.25,415.03 A240,240 0 0 1 76.25,96.97 L122.69,138.05 A178,178 0 0 0 122.69,373.95 Z"/>
    <circle cx="256" cy="256" r="168" fill="url(#disc)"/>
    <path d="M168,340 L168,172 L256,286 L344,172 L344,340"
          fill="none" stroke="#ffffff" stroke-width="46"
          stroke-linecap="round" stroke-linejoin="round"/>
    <polygon points="286,150 198,278 250,278 226,386 330,250 276,250 314,150" fill="#f5a11c"
             stroke="#0b1f3d" stroke-width="10" stroke-linejoin="round"/>
  </g>
</svg>
